name C:\Users\u0101727\Documents\MyRepositories\upper-imu-dc\Results\main_mocap_tracking\Case_10\FLX01_angularVelocities_bodyFrame.mot
datacolumns 4
datarows 141
range 2.01000000 3.41000000
endheader 
time	radius_imu_x	radius_imu_y	radius_imu_z	
          2.01000000	         -0.83602248	          0.04399939	         -0.85916996	
          2.02000000	         -0.84914616	          0.21884438	         -0.85404881	
          2.03000000	         -0.86346529	          0.42607305	         -0.84967866	
          2.04000000	         -0.87580041	          0.63083953	         -0.84517456	
          2.05000000	         -0.88363861	          0.79997305	         -0.83955075	
          2.06000000	         -0.88577514	          0.91077799	         -0.83205241	
          2.07000000	         -0.88250013	          0.95593334	         -0.82237860	
          2.08000000	         -0.87523382	          0.94215762	         -0.81069848	
          2.09000000	         -0.86575095	          0.88322077	         -0.79745882	
          2.10000000	         -0.85535443	          0.79109225	         -0.78309099	
          2.11000000	         -0.84448618	          0.67113592	         -0.76781669	
          2.12000000	         -0.83305278	          0.52515209	         -0.75171520	
          2.13000000	         -0.82120868	          0.35975366	         -0.73502038	
          2.14000000	         -0.81000499	          0.19330583	         -0.71844683	
          2.15000000	         -0.80147869	          0.05640292	         -0.70334765	
          2.16000000	         -0.79811587	         -0.01487177	         -0.69160052	
          2.17000000	         -0.80188109	          0.00940926	         -0.68521261	
          2.18000000	         -0.81321179	          0.14098827	         -0.68575586	
          2.19000000	         -0.83051799	          0.36698186	         -0.69387824	
          2.20000000	         -0.85053327	          0.65291593	         -0.70913538	
          2.21000000	         -0.86931396	          0.95322859	         -0.73018415	
          2.22000000	         -0.88330199	          1.22310573	         -0.75516714	
          2.23000000	         -0.88999356	          1.42678556	         -0.78208415	
          2.24000000	         -0.88812096	          1.54112543	         -0.80904711	
          2.25000000	         -0.87750428	          1.55559097	         -0.83441678	
          2.26000000	         -0.85878165	          1.47035269	         -0.85686522	
          2.27000000	         -0.83315117	          1.29376087	         -0.87540300	
          2.28000000	         -0.80216368	          1.03992110	         -0.88938580	
          2.29000000	         -0.76756183	          0.72672636	         -0.89850328	
          2.30000000	         -0.73117181	          0.37460513	         -0.90276123	
          2.31000000	         -0.69486956	          0.00621116	         -0.90247601	
          2.32000000	         -0.66061241	         -0.35306229	         -0.89828945	
          2.33000000	         -0.63046609	         -0.67445896	         -0.89118538	
          2.34000000	         -0.60651760	         -0.92631565	         -0.88246722	
          2.35000000	         -0.59058733	         -1.07681636	         -0.87365535	
          2.36000000	         -0.58374702	         -1.09962631	         -0.86628340	
          2.37000000	         -0.58577253	         -0.98167241	         -0.86160344	
          2.38000000	         -0.59477661	         -0.73041119	         -0.86025938	
          2.39000000	         -0.60732642	         -0.37625166	         -0.86206397	
          2.40000000	         -0.61917169	          0.03287927	         -0.86602430	
          2.41000000	         -0.62629735	          0.44288816	         -0.87062362	
          2.42000000	         -0.62579754	          0.80524342	         -0.87421252	
          2.43000000	         -0.61628382	          1.08488393	         -0.87534959	
          2.44000000	         -0.59786284	          1.26338655	         -0.87301518	
          2.45000000	         -0.57185142	          1.33823734	         -0.86669292	
          2.46000000	         -0.54038669	          1.31953978	         -0.85635320	
          2.47000000	         -0.50604614	          1.22567137	         -0.84238904	
          2.48000000	         -0.47152921	          1.07920054	         -0.82553416	
          2.49000000	         -0.43939809	          0.90362125	         -0.80677002	
          2.50000000	         -0.41185605	          0.72080279	         -0.78722232	
          2.51000000	         -0.39055001	          0.54903366	         -0.76804405	
          2.52000000	         -0.37642351	          0.40169638	         -0.75029487	
          2.53000000	         -0.36965926	          0.28666068	         -0.73483305	
          2.54000000	         -0.36972213	          0.20644738	         -0.72223135	
          2.55000000	         -0.37548693	          0.15908478	         -0.71272679	
          2.56000000	         -0.38541946	          0.13944398	         -0.70621072	
          2.57000000	         -0.39777676	          0.14074964	         -0.70226296	
          2.58000000	         -0.41080513	          0.15597362	         -0.70023222	
          2.59000000	         -0.42293112	          0.17891476	         -0.69935813	
          2.60000000	         -0.43293963	          0.20483887	         -0.69891336	
          2.61000000	         -0.44010737	          0.23059911	         -0.69832629	
          2.62000000	         -0.44424577	          0.25430727	         -0.69724486	
          2.63000000	         -0.44563398	          0.27483079	         -0.69552898	
          2.64000000	         -0.44486973	          0.29142572	         -0.69319268	
          2.65000000	         -0.44269559	          0.30365701	         -0.69033642	
          2.66000000	         -0.43985343	          0.31158454	         -0.68710410	
          2.67000000	         -0.43698706	          0.31607016	         -0.68367431	
          2.68000000	         -0.43457945	          0.31893605	         -0.68026744	
          2.69000000	         -0.43290509	          0.32267433	         -0.67714417	
          2.70000000	         -0.43199841	          0.32965832	         -0.67458453	
          2.71000000	         -0.43165542	          0.34121222	         -0.67285303	
          2.72000000	         -0.43148081	          0.35706158	         -0.67215902	
          2.73000000	         -0.43097623	          0.37545592	         -0.67261982	
          2.74000000	         -0.42964642	          0.39382843	         -0.67423484	
          2.75000000	         -0.42709091	          0.40957179	         -0.67687807	
          2.76000000	         -0.42305306	          0.42057218	         -0.68031034	
          2.77000000	         -0.41741916	          0.42544133	         -0.68420536	
          2.78000000	         -0.41018844	          0.42361025	         -0.68818095	
          2.79000000	         -0.40144942	          0.41541197	         -0.69183046	
          2.80000000	         -0.39138098	          0.40209457	         -0.69475468	
          2.81000000	         -0.38026367	          0.38560395	         -0.69659705	
          2.82000000	         -0.36846737	          0.36806042	         -0.69707889	
          2.83000000	         -0.35639490	          0.35107319	         -0.69602510	
          2.84000000	         -0.34439868	          0.33523943	         -0.69337112	
          2.85000000	         -0.33271583	          0.32015363	         -0.68914933	
          2.86000000	         -0.32145688	          0.30495516	         -0.68346193	
          2.87000000	         -0.31064361	          0.28906356	         -0.67645335	
          2.88000000	         -0.30026031	          0.27260911	         -0.66829193	
          2.89000000	         -0.29028636	          0.25631951	         -0.65916188	
          2.90000000	         -0.28070701	          0.24104553	         -0.64926099	
          2.91000000	         -0.27151509	          0.22730801	         -0.63879633	
          2.92000000	         -0.26270736	          0.21512767	         -0.62796891	
          2.93000000	         -0.25426545	          0.20414429	         -0.61694249	
          2.94000000	         -0.24611402	          0.19385978	         -0.60580199	
          2.95000000	         -0.23806944	          0.18384811	         -0.59451601	
          2.96000000	         -0.22981382	          0.17389406	         -0.58292163	
          2.97000000	         -0.22093054	          0.16408817	         -0.57074599	
          2.98000000	         -0.21100763	          0.15486133	         -0.55766726	
          2.99000000	         -0.19977214	          0.14690903	         -0.54339928	
          3.00000000	         -0.18719411	          0.14101850	         -0.52777058	
          3.01000000	         -0.17350953	          0.13787618	         -0.51076771	
          3.02000000	         -0.15914718	          0.13789617	         -0.49252613	
          3.03000000	         -0.14458733	          0.14103389	         -0.47327560	
          3.04000000	         -0.13021372	          0.14653998	         -0.45327024	
          3.05000000	         -0.11621983	          0.15265166	         -0.43273841	
          3.06000000	         -0.10259443	          0.15627496	         -0.41186613	
          3.07000000	         -0.08916752	          0.15281192	         -0.39080001	
          3.08000000	         -0.07567562	          0.13640094	         -0.36964588	
          3.09000000	         -0.06182322	          0.10079215	         -0.34845782	
          3.10000000	         -0.04734419	          0.04079998	         -0.32723332	
          3.11000000	         -0.03207291	         -0.04605163	         -0.30593177	
          3.12000000	         -0.01601511	         -0.15828622	         -0.28451951	
          3.13000000	          0.00061842	         -0.29022339	         -0.26302310	
          3.14000000	          0.01745140	         -0.43301269	         -0.24156213	
          3.15000000	          0.03405260	         -0.57666584	         -0.22034272	
          3.16000000	          0.05003591	         -0.71196965	         -0.19962717	
          3.17000000	          0.06500266	         -0.83059923	         -0.17973226	
          3.18000000	          0.07826557	         -0.92273896	         -0.16109283	
          3.19000000	          0.08854802	         -0.97413063	         -0.14433899	
          3.20000000	          0.09399842	         -0.96608747	         -0.13027194	
          3.21000000	          0.09269594	         -0.88052738	         -0.11966922	
          3.22000000	          0.08350042	         -0.70869017	         -0.11296290	
          3.23000000	          0.06683955	         -0.45925198	         -0.10993601	
          3.24000000	          0.04495418	         -0.16065561	         -0.10961950	
          3.25000000	          0.02137316	          0.14485082	         -0.11048371	
          3.26000000	         -0.00011701	          0.41265565	         -0.11083071	
          3.27000000	         -0.01645480	          0.60676806	         -0.10918055	
          3.28000000	         -0.02585568	          0.70617027	         -0.10450763	
          3.29000000	         -0.02789427	          0.70602218	         -0.09631312	
          3.30000000	         -0.02326843	          0.61526637	         -0.08458691	
          3.31000000	         -0.01341050	          0.45234623	         -0.06970885	
          3.32000000	         -0.00007903	          0.24043376	         -0.05232436	
          3.33000000	          0.01494064	          0.00357689	         -0.03323213	
          3.34000000	          0.02994493	         -0.23518225	         -0.01331415	
          3.35000000	          0.04328115	         -0.45398778	          0.00650205	
          3.36000000	          0.05331948	         -0.63199194	          0.02528325	
          3.37000000	          0.05852380	         -0.74991217	          0.04215031	
          3.38000000	          0.05764989	         -0.79188030	          0.05636155	
          3.39000000	          0.05007469	         -0.74886309	          0.06742763	
          3.40000000	          0.03618800	         -0.62298181	          0.07524717	
          3.41000000	          0.01767024	         -0.43068325	          0.08020883	
